<mxfile host="app.diagrams.net" agent="Mozilla/5.0 (Windows NT 10.0; Win64; x64) AppleWebKit/537.36 (KHTML, like Gecko) Chrome/140.0.0.0 Safari/537.36" version="28.2.3">
  <diagram name="Page-1" id="ReGBoRyHxc8NIuU5i4oH">
    <mxGraphModel dx="1188" dy="1724" grid="1" gridSize="10" guides="1" tooltips="1" connect="1" arrows="1" fold="1" page="1" pageScale="1" pageWidth="850" pageHeight="1100" math="0" shadow="0">
      <root>
        <mxCell id="0" />
        <mxCell id="1" parent="0" />
        <mxCell id="-4OVqxD06DcmpKLyYQEg-1" value="" style="strokeWidth=2;html=1;shape=mxgraph.flowchart.terminator;whiteSpace=wrap;" parent="1" vertex="1">
          <mxGeometry x="385" y="-45" width="100" height="60" as="geometry" />
        </mxCell>
        <mxCell id="-4OVqxD06DcmpKLyYQEg-2" value="&lt;font style=&quot;font-size: 14px;&quot;&gt;START&lt;/font&gt;" style="text;html=1;align=center;verticalAlign=middle;resizable=0;points=[];autosize=1;strokeColor=none;fillColor=none;" parent="1" vertex="1">
          <mxGeometry x="400" y="-30" width="70" height="30" as="geometry" />
        </mxCell>
        <mxCell id="Y8nIdl5jXoJ75daPouhq-1" value="&lt;font style=&quot;font-size: 14px;&quot;&gt;Write&quot;Principal &quot; , Read p&lt;/font&gt;&lt;div&gt;&lt;font size=&quot;3&quot;&gt;Write &quot; Rate &quot; Read r&lt;/font&gt;&lt;/div&gt;&lt;div&gt;&lt;font size=&quot;3&quot;&gt;Write &quot; Time &quot; Read t&lt;/font&gt;&lt;/div&gt;" style="shape=parallelogram;perimeter=parallelogramPerimeter;whiteSpace=wrap;html=1;fixedSize=1;" parent="1" vertex="1">
          <mxGeometry x="305" y="80" width="260" height="100" as="geometry" />
        </mxCell>
        <mxCell id="Y8nIdl5jXoJ75daPouhq-6" value="&lt;font size=&quot;3&quot;&gt;CI = p*((1+r/100)^t - 1)&lt;/font&gt;&lt;div&gt;&lt;font size=&quot;3&quot;&gt;SI = (p*r*t)/100&lt;br&gt;&lt;/font&gt;&lt;div&gt;&lt;font size=&quot;3&quot;&gt;&amp;nbsp;&lt;/font&gt;&lt;/div&gt;&lt;/div&gt;" style="rounded=0;whiteSpace=wrap;html=1;" parent="1" vertex="1">
          <mxGeometry x="325" y="240" width="200" height="90" as="geometry" />
        </mxCell>
        <mxCell id="Y8nIdl5jXoJ75daPouhq-7" value="&lt;font size=&quot;3&quot;&gt;Write &quot; SI= &quot; , SI&lt;/font&gt;&lt;div&gt;&lt;font size=&quot;3&quot;&gt;Write &quot; CI = &quot;, CI&amp;nbsp;&lt;/font&gt;&lt;/div&gt;" style="shape=parallelogram;perimeter=parallelogramPerimeter;whiteSpace=wrap;html=1;fixedSize=1;" parent="1" vertex="1">
          <mxGeometry x="305" y="390" width="220" height="80" as="geometry" />
        </mxCell>
        <mxCell id="Y8nIdl5jXoJ75daPouhq-8" value="&lt;font style=&quot;font-size: 14px;&quot;&gt;STOP&lt;/font&gt;" style="rounded=1;whiteSpace=wrap;html=1;" parent="1" vertex="1">
          <mxGeometry x="355" y="530" width="120" height="60" as="geometry" />
        </mxCell>
        <mxCell id="Y8nIdl5jXoJ75daPouhq-12" value="" style="shape=flexArrow;endArrow=classic;html=1;rounded=0;" parent="1" edge="1">
          <mxGeometry width="50" height="50" relative="1" as="geometry">
            <mxPoint x="434.58000000000004" y="15" as="sourcePoint" />
            <mxPoint x="434.58000000000004" y="75" as="targetPoint" />
          </mxGeometry>
        </mxCell>
        <mxCell id="Y8nIdl5jXoJ75daPouhq-13" value="" style="shape=flexArrow;endArrow=classic;html=1;rounded=0;" parent="1" edge="1">
          <mxGeometry width="50" height="50" relative="1" as="geometry">
            <mxPoint x="425" y="180" as="sourcePoint" />
            <mxPoint x="425" y="240" as="targetPoint" />
          </mxGeometry>
        </mxCell>
        <mxCell id="Y8nIdl5jXoJ75daPouhq-15" value="" style="shape=flexArrow;endArrow=classic;html=1;rounded=0;" parent="1" edge="1">
          <mxGeometry width="50" height="50" relative="1" as="geometry">
            <mxPoint x="425" y="330" as="sourcePoint" />
            <mxPoint x="425" y="390" as="targetPoint" />
            <Array as="points">
              <mxPoint x="425" y="360" />
            </Array>
          </mxGeometry>
        </mxCell>
        <mxCell id="Y8nIdl5jXoJ75daPouhq-17" value="" style="shape=flexArrow;endArrow=classic;html=1;rounded=0;" parent="1" edge="1">
          <mxGeometry width="50" height="50" relative="1" as="geometry">
            <mxPoint x="414.58" y="470" as="sourcePoint" />
            <mxPoint x="414.58" y="530" as="targetPoint" />
          </mxGeometry>
        </mxCell>
      </root>
    </mxGraphModel>
  </diagram>
</mxfile>
